<?xml version="1.0" encoding="UTF-8"?><svg id="Layer_2" xmlns="http://www.w3.org/2000/svg" viewBox="0 0 35.44 50"><defs><style>.cls-1{fill:#000;stroke-width:0px;}</style></defs><g id="Flattened"><path class="cls-1" d="M13.96,17.58c0-4.65,2.81-8.65,6.82-10.39-3.63-.37-7.34,1.24-9.5,4.5-2.25,3.4-2.18,7.64-.19,10.9L0,39.35l2.18,5.19,4.7-.42,2.03-2.96.28-3.6,2.33-.21.29-.42-.81-2.93,2.91-.09.26-.4.84-.04,4.01-6.06c.23.02.45,0,.68,0-3.42-1.95-5.73-5.62-5.73-9.84Z"/><path class="cls-1" d="M30.29,8.78c-.15,2.39-1.24,4.52-2.91,6.04.01-.01.02-.03.03-.04-.5.62-1.26,1.03-2.12,1.03-1.51,0-2.73-1.22-2.73-2.73s1.22-2.73,2.73-2.73c.22,0,.43.04.64.09.33-.67.54-1.42.54-2.22,0-.24-.02-.48-.06-.71-.37-.04-.74-.07-1.12-.07-5.61,0-10.16,4.55-10.16,10.16,0,4.07,2.4,7.57,5.86,9.19v20.1l4.69,3.12,3.81-3.05h-.03v-3.89l-1.81-3.13,1.8-1.48v-.51l-2.32-1.95,3.13-2.29v-7.27c3.09-1.74,5.18-5.05,5.18-8.85s-2.09-7.05-5.16-8.8ZM23.43,46.09l-.46.5-.52-.5v-17.19h.98v17.19Z"/><path class="cls-1" d="M21.38,0c-4.52,0-8.2,3.68-8.2,8.2,0,.11.01.23.02.34.75-.56,1.57-1.02,2.42-1.37.49-2.74,2.88-4.83,5.76-4.83,3.23,0,5.86,2.63,5.86,5.86,0,1.04-.27,2.01-.75,2.86-.73,1.31-1.95,2.3-3.41,2.75.31.93,1.18,1.6,2.21,1.6,0,0,0,0,.01,0,.87-.47,1.64-1.1,2.28-1.84,1.25-1.44,2.01-3.31,2.01-5.36,0-4.52-3.68-8.2-8.2-8.2Z"/></g></svg>