<?xml version="1.0" encoding="UTF-8"?><svg id="Layer_2" xmlns="http://www.w3.org/2000/svg" viewBox="0 0 50 50"><defs><style>.cls-1{fill:#000;stroke-width:0px;}</style></defs><g id="Flattened"><path class="cls-1" d="M25,0C11.19,0,0,11.19,0,25s11.19,25,25,25,25-11.19,25-25S38.81,0,25,0ZM24.91,8.18c3.13,0,3.65,1.58,3.69,2.53,0,.54-.05,1.24-.15,1.99-.1,1.07-.25,2.62-.44,4.42-.42,4.12-.94,9.26-1.19,13.1l-.06.91h-3.64l-.07-.9c-.36-4.75-1.04-11.56-1.45-15.62l-.24-2.49c-.05-.52-.09-1.06-.09-1.41,0-.76.35-2.52,3.64-2.52ZM24.95,41.82c-2.22,0-3.83-1.67-3.83-3.97s1.65-3.97,3.83-3.97,3.92,1.74,3.92,3.97-1.65,3.97-3.92,3.97Z"/></g></svg>